HIERARCHY
ROOT Hips
{
	OFFSET 0.000000 8.830580 0.000000
	CHANNELS 6 Xposition Yposition Zposition Zrotation Yrotation Xrotation 
	JOINT Spine
	{
		OFFSET 0.000000 0.010000 0.000000
		CHANNELS 3 Zrotation Yrotation Xrotation
		JOINT Spine1
		{
			OFFSET 0.000000 2.459130 0.000000
			CHANNELS 3 Zrotation Yrotation Xrotation
			JOINT Neck
			{
				OFFSET 0.000000 2.484630 0.000000
				CHANNELS 3 Zrotation Yrotation Xrotation
				JOINT Head_virtual
				{
					OFFSET 0.000000 0.000000 0.000000
					CHANNELS 3 Zrotation Yrotation Xrotation
					JOINT Head
					{
						OFFSET 0.000000 0.927525 0.000000
						CHANNELS 3 Zrotation Yrotation Xrotation
						End Site
						{
							OFFSET 0.000000 0.000000 0.000000
						}
					}
				}
				JOINT LeftUpArm_virtual
				{
					OFFSET 0.000000 0.000000 0.000000
					CHANNELS 3 Zrotation Yrotation Xrotation
					JOINT LeftUpArm
					{
						OFFSET 1.248820 0.000000 0.000000
						CHANNELS 3 Zrotation Yrotation Xrotation
						JOINT LeftForeArm
						{
							OFFSET 2.597580 0.000000 0.000000
							CHANNELS 3 Zrotation Yrotation Xrotation
							JOINT LeftHand
							{
								OFFSET 2.455420 0.000000 0.000000
								CHANNELS 3 Zrotation Yrotation Xrotation
								End Site
								{
									OFFSET 0.000000 0.000000 0.000000
								}
							}
						}
					}
				}
				JOINT RightUpArm_virtual
				{
					OFFSET -0.000000 -0.000000 -0.000000
					CHANNELS 3 Zrotation Yrotation Xrotation
					JOINT RightUpArm
					{
						OFFSET -1.248820 -0.000000 -0.000000
						CHANNELS 3 Zrotation Yrotation Xrotation
						JOINT RightForeArm
						{
							OFFSET -2.597580 -0.000000 -0.000000
							CHANNELS 3 Zrotation Yrotation Xrotation
							JOINT RightHand
							{
								OFFSET -2.455420 -0.000000 -0.000000
								CHANNELS 3 Zrotation Yrotation Xrotation
								End Site
								{
									OFFSET 0.000000 0.000000 0.000000
								}
							}
						}
					}
				}
			}
		}
	}
	JOINT LeftUpLeg
	{
		OFFSET 1.271939 0.000000 0.000000
		CHANNELS 3 Zrotation Yrotation Xrotation
		JOINT LeftLowLeg
		{
			OFFSET 0.000000 -4.342910 0.000000
			CHANNELS 3 Zrotation Yrotation Xrotation
			JOINT LeftFoot
			{
				OFFSET 0.000000 -4.487670 0.000000
				CHANNELS 3 Zrotation Yrotation Xrotation
				JOINT LeftToeBase
				{
					OFFSET 0.000000 0.000000 1.515070
					CHANNELS 3 Zrotation Yrotation Xrotation
					End Site
					{
						OFFSET 0.000000 0.000000 0.000000
					}
				}
			}
		}
	}
	JOINT RightUpLeg
	{
		OFFSET -1.271939 0.000000 0.000000
		CHANNELS 3 Zrotation Yrotation Xrotation
		JOINT RightLowLeg
		{
			OFFSET 0.000000 -4.342910 0.000000
			CHANNELS 3 Zrotation Yrotation Xrotation
			JOINT RightFoot
			{
				OFFSET 0.000000 -4.487670 0.000000
				CHANNELS 3 Zrotation Yrotation Xrotation
				JOINT RightToeBase
				{
					OFFSET 0.000000 0.000000 1.515070
					CHANNELS 3 Zrotation Yrotation Xrotation
					End Site
					{
						OFFSET 0.000000 0.000000 0.000000
					}
				}
			}
		}
	}
}
MOTION
Frames: 15
Frame Time: 0.041667
-16.851003 5.432729 41.064122 -174.270995 -0.803317 142.961803 16.334067 -29.597286 3.229101 -30.885653 27.931959 0.105346 0.000000 0.000000 0.000000 8.564846 -7.813666 19.147761 4.851511 21.060631 -66.581604 -17.235001 -10.824300 1.826020 -27.489201 -49.043701 72.077202 -180.000000 -69.887001 180.000000 176.542999 -43.717800 -46.064499 39.814899 6.895500 6.272620 25.844101 50.880299 48.431400 180.000000 61.918999 -180.000000 34.684299 -6.303500 22.028200 3.749937 7.041978 -40.934183 0.000000 0.000000 72.815498 2.069629 19.468902 16.864106 0.000000 0.000000 -14.728218 6.025651 -2.612754 -41.149629 0.000000 0.000000 72.897697 14.880029 -16.952713 23.176202 0.000000 0.000000 -24.778480 
-16.850954 5.430111 41.067495 -174.271465 -0.770862 142.878489 16.401994 -29.625919 3.226820 -31.051549 27.969791 0.173666 0.000000 0.000000 0.000000 8.824355 -8.117744 18.475768 4.585738 21.222757 -66.737939 -17.152100 -10.867900 1.770950 -27.481100 -49.025002 72.056503 -180.000000 -69.931999 180.000000 176.539001 -43.716599 -46.062901 39.859100 6.953800 6.188360 25.939600 50.861500 48.517300 -180.000000 61.885002 -180.000000 34.739399 -6.654580 22.280800 3.774567 7.109497 -40.882062 0.000000 0.000000 72.826698 2.052926 19.459266 16.870891 0.000000 0.000000 -14.752913 6.026017 -2.627667 -41.116265 0.000000 0.000000 72.904701 15.002695 -16.937300 23.265265 0.000000 0.000000 -24.869220 
-16.850794 5.427971 41.070587 -174.276127 -0.718565 142.788398 16.479240 -29.581258 3.320258 -31.288257 27.926942 0.127133 0.000000 0.000000 0.000000 8.983194 -8.216108 17.800312 4.501064 21.432695 -66.877856 -17.016800 -10.850400 1.789730 -27.560101 -49.089901 72.175003 -180.000000 -69.851997 180.000000 176.533997 -43.715099 -46.061100 39.949299 6.944190 6.163440 26.007500 50.874100 48.583302 180.000000 61.930000 180.000000 34.679100 -6.451460 22.196199 3.810402 7.190944 -40.815784 0.000000 0.000000 72.848503 2.019544 19.453291 16.821877 0.000000 0.000000 -14.716823 6.036382 -2.610343 -41.058366 0.000000 0.000000 72.899002 15.085026 -16.900582 23.328748 0.000000 0.000000 -24.930290 
-16.850471 5.426118 41.072085 -174.307855 -0.737437 142.693376 16.492779 -29.583277 3.343413 -31.456811 27.909637 0.132647 0.000000 0.000000 0.000000 9.227944 -8.471099 17.084978 4.270427 21.597664 -66.949172 -16.878700 -10.899200 1.838310 -27.620100 -49.052799 72.168602 -180.000000 -69.829002 180.000000 176.529999 -43.713699 -46.059299 40.031502 6.944140 6.301020 25.852200 50.977798 48.432800 -180.000000 61.952003 -180.000000 34.653000 -6.390470 22.186899 3.781186 7.234821 -40.736623 0.000000 0.000000 72.855103 2.043239 19.459798 16.798144 0.000000 0.000000 -14.752464 5.991598 -2.688632 -41.028060 0.000000 0.000000 72.974800 15.052464 -16.802875 23.410364 0.000000 0.000000 -24.940700 
-16.850002 5.424837 41.074494 -174.304375 -0.717807 142.619534 16.558173 -29.601870 3.362923 -31.659598 27.918491 0.173853 0.000000 0.000000 0.000000 9.505783 -8.681795 16.264271 3.968646 21.897513 -67.194740 -16.781401 -10.848000 1.837560 -27.656200 -49.143600 72.334000 -180.000000 -69.391998 180.000000 176.526001 -43.712399 -46.057800 40.080101 7.022560 6.441110 25.766199 51.008301 48.149899 180.000000 61.710999 180.000000 35.257301 -7.226070 21.789200 3.802714 7.272064 -40.682904 0.000000 0.000000 72.866203 2.035709 19.488738 16.770352 0.000000 0.000000 -14.766955 5.988832 -2.697683 -40.973021 0.000000 0.000000 72.976097 15.125352 -16.736644 23.446723 0.000000 0.000000 -24.988290 
-16.849583 5.424142 41.076441 -174.299943 -0.719774 142.539913 16.605454 -29.631632 3.390964 -31.844703 27.900442 0.209209 0.000000 0.000000 0.000000 9.721090 -8.765147 15.446586 3.496262 22.298829 -67.579680 -16.693899 -10.813600 1.739180 -27.779699 -49.158100 72.465500 180.000000 -69.315002 -180.000000 176.520996 -43.711102 -46.056099 40.144699 7.018350 6.456660 25.780899 51.042900 48.139099 180.000000 61.677002 180.000000 35.253101 -7.213350 21.783899 3.814294 7.278906 -40.620175 0.000000 0.000000 72.866402 2.037337 19.513619 16.792503 0.000000 0.000000 -14.800563 5.963235 -2.717929 -40.903214 0.000000 0.000000 72.977097 15.297550 -16.641122 23.475902 0.000000 0.000000 -25.212300 
-16.849621 5.423637 41.078793 -174.297852 -0.710909 142.470738 16.660192 -29.616567 3.463888 -32.046916 27.848979 0.183418 0.000000 0.000000 0.000000 9.838548 -8.647356 14.618298 3.139862 22.779875 -67.995073 -16.614201 -10.784600 1.702680 -27.867500 -49.206799 72.427696 180.000000 -69.669998 -180.000000 176.516998 -43.709801 -46.054501 40.187801 6.958490 6.410780 25.915899 51.060001 48.278801 180.000000 61.833000 -180.000000 35.001202 -6.416820 21.459700 3.828921 7.278755 -40.562154 0.000000 0.000000 72.851700 2.031319 19.531015 16.841357 0.000000 0.000000 -14.799921 5.939577 -2.722583 -40.844991 0.000000 0.000000 72.972000 15.396925 -16.557422 23.510166 0.000000 0.000000 -25.288500 
-16.849957 5.422158 41.080797 -174.297187 -0.713333 142.392696 16.693492 -29.559548 3.602341 -32.222225 27.734274 0.085258 0.000000 0.000000 0.000000 9.881933 -8.409529 13.725873 2.748797 23.307845 -68.372047 -16.534000 -10.773100 1.764670 -27.909201 -49.226299 72.443802 180.000000 -69.639999 -180.000000 176.511993 -43.708401 -46.052799 40.249100 6.935920 6.347700 26.017700 51.019699 48.409500 180.000000 61.792999 180.000000 35.091099 -6.447160 21.301100 3.835753 7.242700 -40.507734 0.000000 0.000000 72.852699 2.031191 19.566119 16.891835 0.000000 0.000000 -14.817553 5.909827 -2.748509 -40.804677 0.000000 0.000000 73.000198 15.487695 -16.489515 23.554440 0.000000 0.000000 -25.338900 
-16.850142 5.420090 41.082954 -174.288581 -0.702941 142.360095 16.698180 -29.540776 3.704124 -32.249423 27.698378 0.078263 0.000000 0.000000 0.000000 9.680428 -7.854487 12.692886 2.518048 23.888416 -68.765188 -16.544800 -10.736000 1.760580 -27.951300 -49.257999 72.463600 -180.000000 -69.648003 180.000000 176.509995 -43.707802 -46.051998 40.298401 6.920870 6.290290 25.948500 51.042000 48.516399 180.000000 61.722000 180.000000 34.973598 -6.618990 21.733999 3.851986 7.203112 -40.508413 0.000000 0.000000 72.867401 2.002290 19.629251 16.938043 0.000000 0.000000 -14.836400 5.898196 -2.749446 -40.818946 0.000000 0.000000 73.031403 15.632945 -16.447444 23.603156 0.000000 0.000000 -25.388100 
-16.850680 5.418167 41.085458 -174.283956 -0.694534 142.320692 16.709567 -29.533394 3.806703 -32.279887 27.695056 0.111695 0.000000 0.000000 0.000000 9.226138 -6.938446 11.518714 2.383812 24.603715 -69.222933 -16.517000 -10.724200 1.763940 -28.010200 -49.274502 72.648499 -180.000000 -69.205002 180.000000 176.505005 -43.706001 -46.049900 40.365200 6.904640 6.249800 25.597099 50.948502 48.516201 180.000000 61.961998 180.000000 7.570750 2.311330 -39.804001 3.859493 7.154380 -40.497494 0.000000 0.000000 72.872101 2.012643 19.729588 16.986959 0.000000 0.000000 -14.844576 5.879103 -2.749713 -40.830379 0.000000 0.000000 73.060898 15.788918 -16.409775 23.665823 0.000000 0.000000 -25.430700 
-16.851140 5.416270 41.087773 -174.289669 -0.695635 142.291162 16.642663 -29.582351 3.851465 -32.137915 27.804510 0.283590 0.000000 0.000000 0.000000 8.777039 -6.046158 10.226638 1.979344 25.380072 -69.727038 -16.594999 -10.780200 1.756270 -27.988001 -49.280899 72.626404 -180.000000 -69.206001 180.000000 176.501999 -43.705299 -46.049000 40.311600 6.885240 6.208590 25.582100 50.980499 48.483002 -180.000000 61.931999 -180.000000 7.722860 2.180470 -39.803299 3.853793 7.101667 -40.494196 0.000000 0.000000 72.881500 1.991686 19.829280 17.016302 0.000000 0.000000 -14.870806 5.845445 -2.748735 -40.853987 0.000000 0.000000 73.096497 15.990066 -16.374071 23.707314 0.000000 0.000000 -25.423800 
-16.851600 5.414834 41.089996 -174.277657 -0.684341 142.248028 16.504274 -29.738993 3.860979 -31.749790 28.076510 0.702853 0.000000 0.000000 0.000000 7.794611 -4.538001 8.937427 1.776541 26.298443 -70.473480 -16.783899 -10.764900 1.646190 -27.987101 -49.353401 72.652802 180.000000 -69.426003 -180.000000 176.498993 -43.704201 -46.047600 40.246101 6.825080 6.084820 25.379601 51.111401 48.566399 180.000000 62.130997 180.000000 6.892340 2.960240 -40.681000 3.872436 7.034269 -40.474702 0.000000 0.000000 72.892998 1.973101 19.955782 17.043112 0.000000 0.000000 -14.865017 5.835574 -2.761132 -40.847787 0.000000 0.000000 73.102303 16.122101 -16.341805 23.777027 0.000000 0.000000 -25.393900 
-16.851349 5.413198 41.091527 -174.280517 -0.656703 142.189865 16.308487 -29.909107 3.840071 -31.294884 28.401497 1.182292 0.000000 0.000000 0.000000 6.625839 -2.842836 7.465778 1.679390 27.297134 -71.321681 -17.103001 -10.882000 1.557670 -27.808001 -49.372200 72.680099 -180.000000 -69.291000 180.000000 176.494003 -43.702599 -46.045700 39.992199 6.788690 5.900690 25.923100 51.263000 48.728802 180.000000 61.757004 180.000000 18.101900 -9.006730 -36.871300 3.901560 6.978338 -40.433994 0.000000 0.000000 72.907700 1.895190 20.052670 17.060370 0.000000 0.000000 -14.834010 5.831183 -2.756803 -40.823961 0.000000 0.000000 73.107201 16.241183 -16.320386 23.835212 0.000000 0.000000 -25.415000 
-16.851447 5.410356 41.092814 -174.279799 -0.621955 142.134713 16.137114 -30.025484 3.870568 -30.853161 28.672186 1.574815 0.000000 0.000000 0.000000 5.261925 -1.019326 5.940578 1.753518 28.270252 -71.950466 -17.346600 -10.976900 1.489040 -27.747101 -49.365101 72.804199 -180.000000 -69.026001 -180.000000 176.490005 -43.701401 -46.044201 39.888000 6.741300 5.839280 25.847000 51.318699 48.710999 -180.000000 61.594002 -180.000000 18.392900 -9.690830 -35.956100 3.937760 6.911467 -40.411259 0.000000 0.000000 72.948898 1.807036 20.171668 17.053517 0.000000 0.000000 -14.770055 5.829797 -2.744105 -40.819425 0.000000 0.000000 73.142303 16.386861 -16.284219 23.868300 0.000000 0.000000 -25.441400 
-16.852080 5.407038 41.094035 -174.279631 -0.581877 142.107582 15.984076 -30.142884 3.876271 -30.375446 28.959615 1.972282 0.000000 0.000000 0.000000 3.915959 0.687257 4.388160 1.832675 29.169001 -72.361107 -17.616699 -11.050100 1.421070 -27.713301 -49.386200 72.863502 -180.000000 -68.640999 180.000000 176.485992 -43.700298 -46.042801 39.774700 6.715410 5.783810 25.665100 51.345402 48.716301 -180.000000 61.709000 -180.000000 18.009199 -9.188790 -36.262501 3.972332 6.849993 -40.421446 0.000000 0.000000 73.005402 1.636684 20.296934 16.963450 0.000000 0.000000 -14.804120 5.829351 -2.725667 -40.844215 0.000000 0.000000 73.181999 16.521556 -16.216212 23.906165 0.000000 0.000000 -25.583300 
